<svg width="30" height="30" viewBox="0 0 30 30" fill="none" xmlns="http://www.w3.org/2000/svg">
<path d="M14.082 1.14315C13.7583 1.76024 12.7264 3.69247 11.7856 5.42236C10.8448 7.16237 10.0759 8.60901 10.0759 8.64947C10.0759 8.68994 10.4604 9.3475 10.9257 10.1062C11.3911 10.865 11.907 11.7653 12.079 12.089C12.3723 12.6555 12.7062 13.9707 12.7062 14.4866C12.6961 14.6788 12.6657 14.6485 12.5039 14.3247C12.1397 13.5964 12.0183 13.5255 10.339 13.04C8.86197 12.6151 0.0708728 10.6727 5.84206e-05 10.7537C-0.0100579 10.7638 1.29495 12.2104 2.91356 13.9605C4.52206 15.7107 6.03951 17.3799 6.29242 17.6732L6.74766 18.1892L6.22161 23.1057C5.92823 25.8068 5.72591 28.0526 5.75626 28.0931C5.79672 28.1234 7.75929 27.2939 10.1265 26.2418L14.426 24.3298V21.7805C14.426 19.2312 14.426 19.2312 14.1832 18.9479C13.9505 18.6748 13.8999 18.6646 12.8377 18.6343C11.3809 18.6039 11.2899 18.5736 11.2899 18.2296C11.2899 17.7946 11.7047 17.0561 11.9677 17.0157C12.0891 16.9955 12.7871 17.218 13.5054 17.5114L14.8205 18.0475L16.085 17.5114C16.7831 17.218 17.4609 16.9955 17.5823 17.0157C17.7643 17.0359 17.8756 17.1877 18.0577 17.653C18.3916 18.5129 18.3511 18.5534 16.9449 18.6141C16.3076 18.6444 15.7208 18.7051 15.6399 18.7456C15.2251 18.9479 15.1847 19.1806 15.1543 21.8108L15.124 24.35L17.3698 25.3515C18.604 25.8978 20.5362 26.7678 21.649 27.2736C23.0855 27.9211 23.6925 28.1437 23.7128 28.0526C23.7431 27.9312 23.3789 24.9267 22.7618 20.344C22.6303 19.3222 22.519 18.4016 22.519 18.3005C22.519 18.1791 23.8443 16.7425 25.8372 14.6889C27.6581 12.8073 29.2565 11.1381 29.3981 10.9863L29.651 10.7031L29.1958 10.7739C27.6278 11.0066 19.7775 12.8579 18.2196 13.3637C17.1978 13.6874 17.0562 13.8088 16.6516 14.6889L16.4492 15.1239L16.5099 14.5169C16.6718 12.9793 16.9348 12.3521 18.5838 9.58018C18.9176 9.02378 19.1503 8.53819 19.0997 8.50784C19.0491 8.47749 18.0577 6.54527 16.8943 4.22863C15.731 1.90187 14.7598 2.00562e-06 14.7294 2.00562e-06C14.6991 2.00562e-06 14.4158 0.515935 14.082 1.14315Z" fill="url(#paint0_linear_1_16)"/>
<path d="M12.777 26.3935L10.7638 27.2838L11.3101 27.5873C11.7654 27.8503 14.5575 29.3374 14.7396 29.4183C14.8003 29.4487 18.3713 27.5266 18.3713 27.4659C18.3713 27.4456 17.9262 27.1927 17.39 26.9095C16.8438 26.6161 16.0345 26.1811 15.5893 25.9383L14.78 25.5033L12.777 26.3935Z" fill="url(#paint1_linear_1_16)"/>
<defs>
<linearGradient id="paint0_linear_1_16" x1="14.8255" y1="28.0939" x2="14.8255" y2="1.90735e-06" gradientUnits="userSpaceOnUse">
<stop stop-color="#FFE600" stop-opacity="0.72"/>
<stop offset="1" stop-color="#D9D9D9" stop-opacity="0"/>
</linearGradient>
<linearGradient id="paint1_linear_1_16" x1="14.5676" y1="29.4187" x2="14.5676" y2="25.5033" gradientUnits="userSpaceOnUse">
<stop stop-color="#FFE600" stop-opacity="0.72"/>
<stop offset="1" stop-color="#D9D9D9" stop-opacity="0"/>
</linearGradient>
</defs>
</svg>
